<svg xmlns="http://www.w3.org/2000/svg" width="512" height="512" viewBox="0 0 108 108">
  <defs>
    <linearGradient id="bg" x1="0" y1="0" x2="108" y2="108" gradientUnits="userSpaceOnUse">
      <stop offset="0" stop-color="#14B8A6"/>
      <stop offset="0.55" stop-color="#0E97C4"/>
      <stop offset="1" stop-color="#0284C7"/>
    </linearGradient>
  </defs>
  <g>
    <rect width="108" height="108" fill="url(#bg)"/>
    <path
      d="M32,80 C44,81 48,72 59,67"
      fill="none"
      stroke="#fff"
      stroke-width="6.5"
      stroke-linecap="round"
      stroke-linejoin="round"/>
    <circle cx="32" cy="80" r="4.5" fill="#fff"/>
    <g transform="translate(37.8 27.35) scale(1.85)">
      <path
        fill="#fff"
        d="M12,2C8.13,2 5,5.13 5,9c0,5.25 7,13 7,13s7,-7.75 7,-13c0,-3.87 -3.13,-7 -7,-7zM12,11.5c-1.38,0 -2.5,-1.12 -2.5,-2.5s1.12,-2.5 2.5,-2.5 2.5,1.12 2.5,2.5 -1.12,2.5 -2.5,2.5z"/>
    </g>
  </g>
</svg>
